<mxfile host="app.diagrams.net" modified="2024-05-31T23:07:48.057Z" agent="Mozilla/5.0 (Windows NT 10.0; Win64; x64) AppleWebKit/537.36 (KHTML, like Gecko) Chrome/125.0.0.0 Safari/537.36" etag="4qpIenFqz3bzqm0wPh3h" version="24.4.13" type="device">
  <diagram name="PÃ¡gina-1" id="aMwAFH9N26I8aD6Ys31Q">
    <mxGraphModel dx="1393" dy="786" grid="1" gridSize="10" guides="1" tooltips="1" connect="1" arrows="1" fold="1" page="1" pageScale="1" pageWidth="1654" pageHeight="1169" math="0" shadow="0">
      <root>
        <mxCell id="0" />
        <mxCell id="1" parent="0" />
        <mxCell id="FB3oa1_HXPOo3XngRwkT-20" value="" style="group" vertex="1" connectable="0" parent="1">
          <mxGeometry x="200" y="460" width="1270" height="90" as="geometry" />
        </mxCell>
        <mxCell id="FB3oa1_HXPOo3XngRwkT-21" value="" style="rounded=0;whiteSpace=wrap;html=1;" vertex="1" parent="FB3oa1_HXPOo3XngRwkT-20">
          <mxGeometry width="1270" height="90" as="geometry" />
        </mxCell>
        <mxCell id="FB3oa1_HXPOo3XngRwkT-22" value="opt" style="rounded=0;whiteSpace=wrap;html=1;" vertex="1" parent="FB3oa1_HXPOo3XngRwkT-20">
          <mxGeometry width="30" height="20" as="geometry" />
        </mxCell>
        <mxCell id="FB3oa1_HXPOo3XngRwkT-17" value="" style="group" vertex="1" connectable="0" parent="1">
          <mxGeometry x="200" y="330" width="1270" height="90" as="geometry" />
        </mxCell>
        <mxCell id="FB3oa1_HXPOo3XngRwkT-18" value="" style="rounded=0;whiteSpace=wrap;html=1;" vertex="1" parent="FB3oa1_HXPOo3XngRwkT-17">
          <mxGeometry width="1270" height="90" as="geometry" />
        </mxCell>
        <mxCell id="FB3oa1_HXPOo3XngRwkT-19" value="opt" style="rounded=0;whiteSpace=wrap;html=1;" vertex="1" parent="FB3oa1_HXPOo3XngRwkT-17">
          <mxGeometry width="30" height="20" as="geometry" />
        </mxCell>
        <mxCell id="FB3oa1_HXPOo3XngRwkT-16" value="" style="group" vertex="1" connectable="0" parent="1">
          <mxGeometry x="200" y="210" width="1270" height="90" as="geometry" />
        </mxCell>
        <mxCell id="FB3oa1_HXPOo3XngRwkT-1" value="" style="rounded=0;whiteSpace=wrap;html=1;" vertex="1" parent="FB3oa1_HXPOo3XngRwkT-16">
          <mxGeometry width="1270" height="90" as="geometry" />
        </mxCell>
        <mxCell id="FB3oa1_HXPOo3XngRwkT-15" value="opt" style="rounded=0;whiteSpace=wrap;html=1;" vertex="1" parent="FB3oa1_HXPOo3XngRwkT-16">
          <mxGeometry width="30" height="20" as="geometry" />
        </mxCell>
        <mxCell id="AAsYS3EWJMEDL4Gx7rc9-1" value=": Administrador" style="shape=umlActor;verticalLabelPosition=bottom;verticalAlign=top;html=1;outlineConnect=0;" parent="1" vertex="1">
          <mxGeometry x="265" y="120" width="30" height="60" as="geometry" />
        </mxCell>
        <mxCell id="AAsYS3EWJMEDL4Gx7rc9-2" value="Sistema" style="rounded=0;whiteSpace=wrap;html=1;" parent="1" vertex="1">
          <mxGeometry x="1390" y="135" width="100" height="30" as="geometry" />
        </mxCell>
        <mxCell id="AAsYS3EWJMEDL4Gx7rc9-3" value="" style="endArrow=none;dashed=1;html=1;rounded=0;" parent="1" source="AAsYS3EWJMEDL4Gx7rc9-10" edge="1">
          <mxGeometry width="50" height="50" relative="1" as="geometry">
            <mxPoint x="279" y="700" as="sourcePoint" />
            <mxPoint x="280" y="220" as="targetPoint" />
          </mxGeometry>
        </mxCell>
        <mxCell id="AAsYS3EWJMEDL4Gx7rc9-5" value="" style="endArrow=none;dashed=1;html=1;rounded=0;" parent="1" edge="1">
          <mxGeometry width="50" height="50" relative="1" as="geometry">
            <mxPoint x="1440" y="560" as="sourcePoint" />
            <mxPoint x="1441" y="220" as="targetPoint" />
          </mxGeometry>
        </mxCell>
        <mxCell id="AAsYS3EWJMEDL4Gx7rc9-6" value="" style="endArrow=classic;html=1;rounded=0;" parent="1" edge="1">
          <mxGeometry width="50" height="50" relative="1" as="geometry">
            <mxPoint x="280" y="240" as="sourcePoint" />
            <mxPoint x="1434" y="240" as="targetPoint" />
          </mxGeometry>
        </mxCell>
        <mxCell id="AAsYS3EWJMEDL4Gx7rc9-7" value="1: criarFornecedor(nome: string, endereco: Endereco, contato: Contato, observacao: string, status: StatusEnum)" style="edgeLabel;html=1;align=center;verticalAlign=middle;resizable=0;points=[];" parent="AAsYS3EWJMEDL4Gx7rc9-6" vertex="1" connectable="0">
          <mxGeometry x="-0.3577" relative="1" as="geometry">
            <mxPoint x="247" y="-10" as="offset" />
          </mxGeometry>
        </mxCell>
        <mxCell id="AAsYS3EWJMEDL4Gx7rc9-8" value="" style="endArrow=classic;html=1;rounded=0;dashed=1;dashPattern=8 8;entryX=0.967;entryY=0.596;entryDx=0;entryDy=0;entryPerimeter=0;" parent="1" target="AAsYS3EWJMEDL4Gx7rc9-10" edge="1">
          <mxGeometry width="50" height="50" relative="1" as="geometry">
            <mxPoint x="1440" y="260" as="sourcePoint" />
            <mxPoint x="290" y="260" as="targetPoint" />
          </mxGeometry>
        </mxCell>
        <mxCell id="AAsYS3EWJMEDL4Gx7rc9-9" value="Mensagem de fornecedor criado" style="edgeLabel;html=1;align=center;verticalAlign=middle;resizable=0;points=[];" parent="AAsYS3EWJMEDL4Gx7rc9-8" vertex="1" connectable="0">
          <mxGeometry x="0.0569" y="2" relative="1" as="geometry">
            <mxPoint y="18" as="offset" />
          </mxGeometry>
        </mxCell>
        <mxCell id="AAsYS3EWJMEDL4Gx7rc9-11" value="" style="endArrow=none;dashed=1;html=1;rounded=0;" parent="1" target="AAsYS3EWJMEDL4Gx7rc9-10" edge="1">
          <mxGeometry width="50" height="50" relative="1" as="geometry">
            <mxPoint x="279" y="560" as="sourcePoint" />
            <mxPoint x="280" y="220" as="targetPoint" />
          </mxGeometry>
        </mxCell>
        <mxCell id="AAsYS3EWJMEDL4Gx7rc9-19" value="" style="endArrow=classic;html=1;rounded=0;" parent="1" edge="1">
          <mxGeometry width="50" height="50" relative="1" as="geometry">
            <mxPoint x="280" y="360" as="sourcePoint" />
            <mxPoint x="1434" y="360" as="targetPoint" />
          </mxGeometry>
        </mxCell>
        <mxCell id="AAsYS3EWJMEDL4Gx7rc9-20" value="2: editarFornecedor(nome: string, endereco: Endereco, contato: Contato, observacao: string, status: StatusEnum)" style="edgeLabel;html=1;align=center;verticalAlign=middle;resizable=0;points=[];" parent="AAsYS3EWJMEDL4Gx7rc9-19" vertex="1" connectable="0">
          <mxGeometry x="-0.3577" relative="1" as="geometry">
            <mxPoint x="247" y="-10" as="offset" />
          </mxGeometry>
        </mxCell>
        <mxCell id="AAsYS3EWJMEDL4Gx7rc9-21" value="" style="endArrow=classic;html=1;rounded=0;dashed=1;dashPattern=8 8;entryX=1.078;entryY=0.801;entryDx=0;entryDy=0;entryPerimeter=0;" parent="1" target="AAsYS3EWJMEDL4Gx7rc9-26" edge="1">
          <mxGeometry width="50" height="50" relative="1" as="geometry">
            <mxPoint x="1440" y="380" as="sourcePoint" />
            <mxPoint x="290" y="380" as="targetPoint" />
          </mxGeometry>
        </mxCell>
        <mxCell id="AAsYS3EWJMEDL4Gx7rc9-22" value="Mensagem de fornecedor editado" style="edgeLabel;html=1;align=center;verticalAlign=middle;resizable=0;points=[];" parent="AAsYS3EWJMEDL4Gx7rc9-21" vertex="1" connectable="0">
          <mxGeometry x="0.0569" y="2" relative="1" as="geometry">
            <mxPoint y="18" as="offset" />
          </mxGeometry>
        </mxCell>
        <mxCell id="AAsYS3EWJMEDL4Gx7rc9-16" value="" style="rounded=0;whiteSpace=wrap;html=1;" parent="1" vertex="1">
          <mxGeometry x="1435" y="230" width="10" height="50" as="geometry" />
        </mxCell>
        <mxCell id="AAsYS3EWJMEDL4Gx7rc9-10" value="" style="rounded=0;whiteSpace=wrap;html=1;" parent="1" vertex="1">
          <mxGeometry x="275" y="230" width="10" height="50" as="geometry" />
        </mxCell>
        <mxCell id="AAsYS3EWJMEDL4Gx7rc9-23" value="" style="endArrow=classic;html=1;rounded=0;" parent="1" edge="1">
          <mxGeometry width="50" height="50" relative="1" as="geometry">
            <mxPoint x="280" y="480" as="sourcePoint" />
            <mxPoint x="1434" y="480" as="targetPoint" />
          </mxGeometry>
        </mxCell>
        <mxCell id="AAsYS3EWJMEDL4Gx7rc9-24" value="3: deletarFornecedor(nome: string, endereco: Endereco, contato: Contato, observacao: string, status: StatusEnum)" style="edgeLabel;html=1;align=center;verticalAlign=middle;resizable=0;points=[];" parent="AAsYS3EWJMEDL4Gx7rc9-23" vertex="1" connectable="0">
          <mxGeometry x="-0.3577" relative="1" as="geometry">
            <mxPoint x="247" y="-10" as="offset" />
          </mxGeometry>
        </mxCell>
        <mxCell id="AAsYS3EWJMEDL4Gx7rc9-26" value="" style="rounded=0;whiteSpace=wrap;html=1;" parent="1" vertex="1">
          <mxGeometry x="275" y="340" width="10" height="50" as="geometry" />
        </mxCell>
        <mxCell id="AAsYS3EWJMEDL4Gx7rc9-27" value="" style="rounded=0;whiteSpace=wrap;html=1;" parent="1" vertex="1">
          <mxGeometry x="1435" y="340" width="10" height="50" as="geometry" />
        </mxCell>
        <mxCell id="AAsYS3EWJMEDL4Gx7rc9-30" value="" style="rounded=0;whiteSpace=wrap;html=1;" parent="1" vertex="1">
          <mxGeometry x="275" y="470" width="10" height="50" as="geometry" />
        </mxCell>
        <mxCell id="AAsYS3EWJMEDL4Gx7rc9-36" value="" style="endArrow=classic;html=1;rounded=0;dashed=1;dashPattern=8 8;entryX=1.078;entryY=0.801;entryDx=0;entryDy=0;entryPerimeter=0;" parent="1" edge="1">
          <mxGeometry width="50" height="50" relative="1" as="geometry">
            <mxPoint x="1440" y="510" as="sourcePoint" />
            <mxPoint x="286" y="510" as="targetPoint" />
          </mxGeometry>
        </mxCell>
        <mxCell id="AAsYS3EWJMEDL4Gx7rc9-37" value="Mensagem de fornecedor deletado" style="edgeLabel;html=1;align=center;verticalAlign=middle;resizable=0;points=[];" parent="AAsYS3EWJMEDL4Gx7rc9-36" vertex="1" connectable="0">
          <mxGeometry x="0.0569" y="2" relative="1" as="geometry">
            <mxPoint y="18" as="offset" />
          </mxGeometry>
        </mxCell>
        <mxCell id="AAsYS3EWJMEDL4Gx7rc9-35" value="" style="rounded=0;whiteSpace=wrap;html=1;" parent="1" vertex="1">
          <mxGeometry x="1435" y="470" width="10" height="50" as="geometry" />
        </mxCell>
      </root>
    </mxGraphModel>
  </diagram>
</mxfile>
